<svg width="24" height="24" xmlns="http://www.w3.org/2000/svg">

 <g>
  <title>background</title>
  <rect fill="none" id="canvas_background" height="514" width="514" y="-1" x="-1"/>
 </g>
 <g>
  <title>Layer 1</title>
  <path fill="white" id="svg_1" d="m14.846,9.334l-3.985,-6.762a1,1 0 0 0 -1.723,0l-2.028,3.443c0.202,1.979 0.943,2.783 2.387,2.783c2.005,0 3.816,0.176 5.35,0.536l-0.001,0zm1.556,2.637c-1.547,-0.767 -3.977,-1.173 -6.905,-1.173c-1.819,0 -3.11,-0.832 -3.813,-2.364l-3.57,6.058a1,1 0 0 0 0.861,1.508l14.05,0a1,1 0 0 0 0.861,-1.508l-1.485,-2.52l0.001,-0.001zm-3.817,-10.416l7.025,11.92a3,3 0 0 1 -2.585,4.525l-14.05,0a3,3 0 0 1 -2.585,-4.523l7.025,-11.92a3,3 0 0 1 5.17,0l0,-0.002z"/>
 </g>
</svg>