<?xml version="1.0" encoding="utf-8"?>
<!-- Generator: Adobe Illustrator 24.1.1, SVG Export Plug-In . SVG Version: 6.00 Build 0)  -->
<svg version="1.1" id="Layer_1" xmlns="http://www.w3.org/2000/svg" xmlns:xlink="http://www.w3.org/1999/xlink" x="0px" y="0px"
	 viewBox="0 0 512 512" style="enable-background:new 0 0 512 512;" xml:space="preserve">
<g>
	<path d="M455.1,290.8c-52-25-135.8-41-211.9-41c-46.7,0-75.4-80.8-83.3-133.7L190,64.9c21.5-36.5,68.4-48.6,104.9-27.1
		c11.2,6.6,20.5,15.9,27.1,27.1L455.1,290.8z M497.8,363.3l3.6,6c21.5,36.5,9.4,83.4-27.1,104.9c-11.8,6.9-25.2,10.6-38.9,10.6H76.6
		C34.3,484.8,0,450.5,0,408.2c0-13.7,3.7-27.1,10.6-38.9L126,173.6c10.6,70.5,54.7,127.3,117.2,127.3
		C313.3,300.9,414.5,314.6,497.8,363.3z"/>
</g>
</svg>
